<svg width="172" height="172" viewBox="0 0 172 172" fill="none" xmlns="http://www.w3.org/2000/svg">
<circle cx="86" cy="86" r="86" fill="#DF87E7"/>
<path d="M85.5 53.625C91.3438 53.625 96.125 58.4062 96.125 64.25C96.125 70.0938 91.3438 74.875 85.5 74.875C79.6562 74.875 74.875 70.0938 74.875 64.25C74.875 58.4062 79.6562 53.625 85.5 53.625ZM85.5 101.438C99.8438 101.438 116.312 108.291 117.375 112.062V117.375H53.625V112.116C54.6875 108.291 71.1562 101.438 85.5 101.438V101.438ZM85.5 43C73.7594 43 64.25 52.5094 64.25 64.25C64.25 75.9906 73.7594 85.5 85.5 85.5C97.2406 85.5 106.75 75.9906 106.75 64.25C106.75 52.5094 97.2406 43 85.5 43V43ZM85.5 90.8125C71.3156 90.8125 43 97.9312 43 112.062V128H128V112.062C128 97.9312 99.6844 90.8125 85.5 90.8125V90.8125Z" fill="#6D18AF"/>
</svg>
