<svg width="172" height="172" viewBox="0 0 172 172" fill="none" xmlns="http://www.w3.org/2000/svg">
<circle cx="86" cy="86" r="86" fill="#88B3E4"/>
<path d="M120.5 61.8947H107.75V52.9474C107.75 47.9816 103.968 44 99.25 44H73.75C69.0325 44 65.25 47.9816 65.25 52.9474V61.8947H52.5C47.7825 61.8947 44 65.8763 44 70.8421V120.053C44 125.018 47.7825 129 52.5 129H120.5C125.218 129 129 125.018 129 120.053V70.8421C129 65.8763 125.218 61.8947 120.5 61.8947ZM73.75 52.9474H99.25V61.8947H73.75V52.9474ZM120.5 120.053H52.5V111.105H120.5V120.053ZM120.5 97.6842H52.5V70.8421H65.25V79.7895H73.75V70.8421H99.25V79.7895H107.75V70.8421H120.5V97.6842Z" fill="#255296"/>
</svg>
